<svg width="1187" height="198" viewBox="0 0 1187 198" fill="none" xmlns="http://www.w3.org/2000/svg">
<path opacity="0.56" d="M0.8 12H22.4L70 78L119.2 12H139.8V158H118.4V46.2L69.6 111.8L22.4 47.6V158H0.8V12ZM216.616 160.2C208.749 160.2 201.416 158.733 194.616 155.8C187.816 152.867 181.882 148.867 176.816 143.8C171.749 138.733 167.749 132.8 164.816 126C161.882 119.2 160.416 111.867 160.416 104C160.416 96.2667 161.882 89 164.816 82.2C167.749 75.2667 171.749 69.2667 176.816 64.2C181.882 59.1333 187.816 55.1333 194.616 52.2C201.416 49.2667 208.749 47.8 216.616 47.8C224.349 47.8 231.616 49.2667 238.416 52.2C245.349 55.1333 251.349 59.1333 256.416 64.2C261.482 69.2667 265.482 75.2667 268.416 82.2C271.349 89 272.816 96.2667 272.816 104C272.816 111.867 271.349 119.2 268.416 126C265.482 132.8 261.482 138.733 256.416 143.8C251.349 148.867 245.349 152.867 238.416 155.8C231.616 158.733 224.349 160.2 216.616 160.2ZM216.616 140C221.549 140 226.082 139.067 230.216 137.2C234.482 135.333 238.149 132.8 241.216 129.6C244.416 126.267 246.882 122.467 248.616 118.2C250.482 113.8 251.416 109.067 251.416 104C251.416 99.0667 250.482 94.4 248.616 90C246.882 85.6 244.416 81.8 241.216 78.6C238.149 75.2667 234.482 72.6667 230.216 70.8C225.949 68.9333 221.416 68 216.616 68C211.682 68 207.082 68.9333 202.816 70.8C198.682 72.6667 195.016 75.2667 191.816 78.6C188.749 81.8 186.349 85.6 184.616 90C182.882 94.4 182.016 99.0667 182.016 104C182.016 109.067 182.882 113.8 184.616 118.2C186.349 122.467 188.749 126.267 191.816 129.6C195.016 132.8 198.682 135.333 202.816 137.2C207.082 139.067 211.682 140 216.616 140ZM344.303 160.2C337.236 160.2 330.436 158.867 323.903 156.2C317.37 153.533 311.57 149.733 306.503 144.8C301.57 139.867 297.57 133.933 294.503 127C291.57 120.067 290.103 112.4 290.103 104C290.103 95.4667 291.57 87.8 294.503 81C297.436 74.0667 301.37 68.1333 306.303 63.2C311.37 58.2667 317.17 54.4667 323.703 51.8C330.37 49.1333 337.303 47.8 344.503 47.8C351.703 47.8 358.57 49.3333 365.103 52.4C371.77 55.4667 377.17 59.6667 381.303 65V-4.29153e-06H402.503V158H381.303V142.2C377.036 147.8 371.57 152.2 364.903 155.4C358.37 158.6 351.503 160.2 344.303 160.2ZM347.103 140.4C352.17 140.4 356.836 139.467 361.103 137.6C365.503 135.6 369.236 133 372.303 129.8C375.503 126.467 377.97 122.6 379.703 118.2C381.57 113.667 382.503 108.867 382.503 103.8C382.503 98.8667 381.57 94.2 379.703 89.8C377.97 85.2667 375.503 81.4 372.303 78.2C369.236 74.8667 365.503 72.2667 361.103 70.4C356.836 68.4 352.17 67.4 347.103 67.4C342.036 67.4 337.303 68.3333 332.903 70.2C328.636 72.0667 324.903 74.6667 321.703 78C318.503 81.2 315.97 85.0667 314.103 89.6C312.37 94 311.503 98.7333 311.503 103.8C311.503 108.867 312.37 113.667 314.103 118.2C315.97 122.6 318.503 126.467 321.703 129.8C324.903 133.133 328.636 135.733 332.903 137.6C337.303 139.467 342.036 140.4 347.103 140.4ZM480.706 160.2C472.04 160.2 464.173 158.8 457.106 156C450.173 153.067 444.173 149.133 439.106 144.2C434.04 139.133 430.106 133.2 427.306 126.4C424.64 119.6 423.306 112.267 423.306 104.4C423.306 96.4 424.706 89 427.506 82.2C430.44 75.2667 434.44 69.2667 439.506 64.2C444.573 59.1333 450.506 55.1333 457.306 52.2C464.106 49.2667 471.506 47.8 479.506 47.8C487.506 47.8 494.84 49.2 501.506 52C508.306 54.6667 514.173 58.4667 519.106 63.4C524.04 68.3333 527.906 74.2 530.706 81C533.506 87.6667 534.906 95 534.906 103V112H444.106C445.706 120.8 449.706 127.867 456.106 133.2C462.506 138.4 470.706 141 480.706 141C488.306 141 494.64 139.4 499.706 136.2C504.906 133 509.106 128.8 512.306 123.6L530.106 134.2C524.906 142.067 518.306 148.4 510.306 153.2C502.306 157.867 492.44 160.2 480.706 160.2ZM479.506 66.8C470.84 66.8 463.44 69.3333 457.306 74.4C451.173 79.3333 447.04 85.7333 444.906 93.6H513.106C511.506 85.0667 507.706 78.4667 501.706 73.8C495.84 69.1333 488.44 66.8 479.506 66.8ZM555.622 50H576.822V68.8C579.089 62 582.822 56.9333 588.022 53.6C593.222 50.1333 599.289 48.4 606.222 48.4C609.955 48.4 613.355 48.8 616.422 49.6C619.622 50.2667 622.289 51.2667 624.422 52.6L616.022 73.4C612.822 71.2667 608.289 70.2 602.422 70.2C594.689 70.2 588.555 72.2667 584.022 76.4C579.489 80.5333 577.222 87.4667 577.222 97.2V158H555.622V50ZM641.369 50H662.569V65C666.302 59.8 671.035 55.6667 676.769 52.6C682.635 49.4 689.369 47.8 696.969 47.8C703.769 47.8 709.902 48.9333 715.369 51.2C720.969 53.3333 725.635 56.4667 729.369 60.6C733.235 64.6 736.169 69.6 738.169 75.6C740.302 81.4667 741.369 88.0667 741.369 95.4V158H719.569V97C719.569 87.8 717.235 80.4667 712.569 75C707.902 69.5333 701.035 66.8 691.969 66.8C687.835 66.8 683.969 67.5333 680.369 69C676.902 70.4667 673.835 72.6 671.169 75.4C668.635 78.0667 666.635 81.4 665.169 85.4C663.702 89.2667 662.969 93.6 662.969 98.4V158H641.369V50ZM887.03 160C876.23 160 866.23 158.067 857.03 154.2C847.963 150.2 840.03 144.8 833.23 138C826.563 131.2 821.363 123.267 817.63 114.2C813.896 105.133 812.03 95.4 812.03 85C812.03 74.3333 813.963 64.4667 817.83 55.4C821.696 46.2 827.03 38.2667 833.83 31.6C840.63 24.8 848.563 19.5333 857.63 15.8C866.83 11.9333 876.63 10 887.03 10C893.963 10 900.563 10.9333 906.83 12.8C913.23 14.5333 919.163 17 924.63 20.2C930.23 23.4 935.296 27.2667 939.83 31.8C944.496 36.3333 948.43 41.3333 951.63 46.8L932.63 58.6C928.096 50.2 921.963 43.5333 914.23 38.6C906.496 33.5333 897.43 31 887.03 31C879.43 31 872.363 32.4 865.83 35.2C859.43 38 853.83 41.8667 849.03 46.8C844.23 51.6 840.496 57.3333 837.83 64C835.163 70.5333 833.83 77.5333 833.83 85C833.83 92.4667 835.163 99.4667 837.83 106C840.496 112.4 844.163 118.067 848.83 123C853.63 127.8 859.23 131.6 865.63 134.4C872.163 137.2 879.23 138.6 886.83 138.6C898.163 138.6 907.763 135.8 915.63 130.2C923.63 124.6 929.763 117.4 934.03 108.6L953.63 119C950.43 125.133 946.563 130.733 942.03 135.8C937.496 140.733 932.363 145 926.63 148.6C921.03 152.2 914.896 155 908.23 157C901.563 159 894.496 160 887.03 160ZM972.814 50H994.614V158H972.814V50ZM968.414 17.6C968.414 13.2 969.814 9.53333 972.614 6.59999C975.547 3.66666 979.214 2.19999 983.614 2.19999C988.147 2.19999 991.814 3.66666 994.614 6.59999C997.547 9.53333 999.014 13.2 999.014 17.6C999.014 22 997.547 25.6667 994.614 28.6C991.814 31.5333 988.147 33 983.614 33C979.081 33 975.414 31.5333 972.614 28.6C969.814 25.6667 968.414 22 968.414 17.6ZM1011.49 50H1032.89V26.6L1054.09 12.8V50H1084.29V69.4H1054.09V122.6C1054.09 128.6 1055.36 132.933 1057.89 135.6C1060.56 138.267 1064.03 139.6 1068.29 139.6C1072.43 139.6 1076.09 138.2 1079.29 135.4L1089.49 153.4C1086.43 155.533 1082.96 157.133 1079.09 158.2C1075.36 159.4 1071.23 160 1066.69 160C1055.89 160 1047.56 157.133 1041.69 151.4C1035.83 145.667 1032.89 136.133 1032.89 122.8V69.4H1011.49V50ZM1115.24 198C1110.17 198 1105.17 197.2 1100.24 195.6C1095.44 194.133 1091.3 192.067 1087.84 189.4L1100.64 171.2C1102.5 173.067 1104.57 174.533 1106.84 175.6C1109.24 176.8 1111.97 177.4 1115.04 177.4C1117.84 177.4 1120.3 177.067 1122.44 176.4C1124.7 175.733 1126.77 174.6 1128.64 173C1130.5 171.533 1132.24 169.533 1133.84 167C1135.57 164.467 1137.3 161.267 1139.04 157.4L1141.04 152.8L1096.64 50H1119.84L1152.24 127.4L1183.24 50H1206.24L1158.04 163.4C1155.37 169.8 1152.57 175.2 1149.64 179.6C1146.84 184 1143.7 187.533 1140.24 190.2C1136.9 193 1133.17 195 1129.04 196.2C1125.04 197.4 1120.44 198 1115.24 198Z" fill="url(#paint0_linear_1720_33281)"/>
<defs>
<linearGradient id="paint0_linear_1720_33281" x1="598.5" y1="-32" x2="598.5" y2="208" gradientUnits="userSpaceOnUse">
<stop stop-color="white"/>
<stop offset="1" stop-color="white" stop-opacity="0"/>
</linearGradient>
</defs>
</svg>
