<svg width="253" height="212" viewBox="0 0 253 212" fill="none" xmlns="http://www.w3.org/2000/svg">
<g opacity="0.08">
<path d="M243.63 21.0882L253 23.0053V468H243.63V21.0882Z" fill="url(#paint0_linear_1731_47736)"/>
<path d="M224.889 17.254L234.259 19.1711V468H224.889V17.254Z" fill="url(#paint1_linear_1731_47736)"/>
<path d="M206.148 13.4198L215.519 15.3369V468H206.148V13.4198Z" fill="url(#paint2_linear_1731_47736)"/>
<path d="M187.407 9.58554L196.778 11.5027V468H187.407V9.58554Z" fill="url(#paint3_linear_1731_47736)"/>
<path d="M168.667 5.75133L178.037 7.66843V468H168.667V5.75133Z" fill="url(#paint4_linear_1731_47736)"/>
<path d="M149.926 1.91711L159.296 3.83422V468H149.926V1.91711Z" fill="url(#paint5_linear_1731_47736)"/>
<path d="M0 468V41.9674L9.37037 39.1696V468H0Z" fill="url(#paint6_linear_1731_47736)"/>
<path d="M18.7407 468V36.3717L28.1111 33.5739V468H18.7407Z" fill="url(#paint7_linear_1731_47736)"/>
<path d="M37.4815 468V30.7761L46.8518 27.9783V468H37.4815Z" fill="url(#paint8_linear_1731_47736)"/>
<path d="M56.2222 468V25.1804L65.5926 22.3826V468H56.2222Z" fill="url(#paint9_linear_1731_47736)"/>
<path d="M74.963 468V19.5848L84.3334 16.787V468H74.963Z" fill="url(#paint10_linear_1731_47736)"/>
<path d="M93.7037 468V13.9891L103.074 11.1913V468H93.7037Z" fill="url(#paint11_linear_1731_47736)"/>
<path d="M112.444 468V8.39348L121.815 5.59566V468H112.444Z" fill="url(#paint12_linear_1731_47736)"/>
<path d="M131.185 468V2.79782L140.556 0L140.556 468H131.185Z" fill="url(#paint13_linear_1731_47736)"/>
</g>
<defs>
<linearGradient id="paint0_linear_1731_47736" x1="126.5" y1="-55.3346" x2="126.5" y2="468" gradientUnits="userSpaceOnUse">
<stop stop-color="#AC835E"/>
<stop offset="1" stop-color="#AC835E" stop-opacity="0"/>
</linearGradient>
<linearGradient id="paint1_linear_1731_47736" x1="126.5" y1="-55.3346" x2="126.5" y2="468" gradientUnits="userSpaceOnUse">
<stop stop-color="#AC835E"/>
<stop offset="1" stop-color="#AC835E" stop-opacity="0"/>
</linearGradient>
<linearGradient id="paint2_linear_1731_47736" x1="126.5" y1="-55.3346" x2="126.5" y2="468" gradientUnits="userSpaceOnUse">
<stop stop-color="#AC835E"/>
<stop offset="1" stop-color="#AC835E" stop-opacity="0"/>
</linearGradient>
<linearGradient id="paint3_linear_1731_47736" x1="126.5" y1="-55.3346" x2="126.5" y2="468" gradientUnits="userSpaceOnUse">
<stop stop-color="#AC835E"/>
<stop offset="1" stop-color="#AC835E" stop-opacity="0"/>
</linearGradient>
<linearGradient id="paint4_linear_1731_47736" x1="126.5" y1="-55.3346" x2="126.5" y2="468" gradientUnits="userSpaceOnUse">
<stop stop-color="#AC835E"/>
<stop offset="1" stop-color="#AC835E" stop-opacity="0"/>
</linearGradient>
<linearGradient id="paint5_linear_1731_47736" x1="126.5" y1="-55.3346" x2="126.5" y2="468" gradientUnits="userSpaceOnUse">
<stop stop-color="#AC835E"/>
<stop offset="1" stop-color="#AC835E" stop-opacity="0"/>
</linearGradient>
<linearGradient id="paint6_linear_1731_47736" x1="126.5" y1="-55.3346" x2="126.5" y2="468" gradientUnits="userSpaceOnUse">
<stop stop-color="#6D3706"/>
<stop offset="1" stop-color="#AC835E" stop-opacity="0"/>
</linearGradient>
<linearGradient id="paint7_linear_1731_47736" x1="126.5" y1="-55.3346" x2="126.5" y2="468" gradientUnits="userSpaceOnUse">
<stop stop-color="#6D3706"/>
<stop offset="1" stop-color="#AC835E" stop-opacity="0"/>
</linearGradient>
<linearGradient id="paint8_linear_1731_47736" x1="126.5" y1="-55.3346" x2="126.5" y2="468" gradientUnits="userSpaceOnUse">
<stop stop-color="#6D3706"/>
<stop offset="1" stop-color="#AC835E" stop-opacity="0"/>
</linearGradient>
<linearGradient id="paint9_linear_1731_47736" x1="126.5" y1="-55.3346" x2="126.5" y2="468" gradientUnits="userSpaceOnUse">
<stop stop-color="#6D3706"/>
<stop offset="1" stop-color="#AC835E" stop-opacity="0"/>
</linearGradient>
<linearGradient id="paint10_linear_1731_47736" x1="126.5" y1="-55.3346" x2="126.5" y2="468" gradientUnits="userSpaceOnUse">
<stop stop-color="#6D3706"/>
<stop offset="1" stop-color="#AC835E" stop-opacity="0"/>
</linearGradient>
<linearGradient id="paint11_linear_1731_47736" x1="126.5" y1="-55.3346" x2="126.5" y2="468" gradientUnits="userSpaceOnUse">
<stop stop-color="#6D3706"/>
<stop offset="1" stop-color="#AC835E" stop-opacity="0"/>
</linearGradient>
<linearGradient id="paint12_linear_1731_47736" x1="126.5" y1="-55.3346" x2="126.5" y2="468" gradientUnits="userSpaceOnUse">
<stop stop-color="#6D3706"/>
<stop offset="1" stop-color="#AC835E" stop-opacity="0"/>
</linearGradient>
<linearGradient id="paint13_linear_1731_47736" x1="126.5" y1="-55.3346" x2="126.5" y2="468" gradientUnits="userSpaceOnUse">
<stop stop-color="#6D3706"/>
<stop offset="1" stop-color="#AC835E" stop-opacity="0"/>
</linearGradient>
</defs>
</svg>
