<svg width="584" height="680" viewBox="0 0 584 680" fill="none" xmlns="http://www.w3.org/2000/svg">
<g opacity="0.08">
<path d="M570.419 52.8529L584 55.6346V679.07H570.419V52.8529Z" fill="url(#paint0_linear_900_17213)"/>
<path d="M543.256 47.2894L556.837 50.0712V679.07H543.256V47.2894Z" fill="url(#paint1_linear_900_17213)"/>
<path d="M516.093 41.726L529.674 44.5077V679.07H516.093V41.726Z" fill="url(#paint2_linear_900_17213)"/>
<path d="M488.93 36.1625L502.512 38.9442V679.07H488.93V36.1625Z" fill="url(#paint3_linear_900_17213)"/>
<path d="M461.767 30.599L475.349 33.3808V679.07H461.767V30.599Z" fill="url(#paint4_linear_900_17213)"/>
<path d="M434.605 25.0356L448.186 27.8173V679.07H434.605V25.0356Z" fill="url(#paint5_linear_900_17213)"/>
<path d="M407.442 19.4721L421.023 22.2539V679.07H407.442V19.4721Z" fill="url(#paint6_linear_900_17213)"/>
<path d="M380.279 13.9087L393.86 16.6904V679.07H380.279V13.9087Z" fill="url(#paint7_linear_900_17213)"/>
<path d="M353.116 8.3452L366.698 11.1269V679.07H353.116V8.3452Z" fill="url(#paint8_linear_900_17213)"/>
<path d="M325.953 2.78174L339.535 5.56347V679.07H325.953V2.78174Z" fill="url(#paint9_linear_900_17213)"/>
<path d="M0 679.07V93.3721L13.5814 89.3124V679.07H0Z" fill="url(#paint10_linear_900_17213)"/>
<path d="M27.1628 679.07V85.2528L40.7442 81.1931V679.07H27.1628Z" fill="url(#paint11_linear_900_17213)"/>
<path d="M54.3256 679.07V77.1335L67.907 73.0738V679.07H54.3256Z" fill="url(#paint12_linear_900_17213)"/>
<path d="M81.4883 679.07V69.0142L95.0697 64.9545V679.07H81.4883Z" fill="url(#paint13_linear_900_17213)"/>
<path d="M108.651 679.07V60.8948L122.233 56.8352V679.07H108.651Z" fill="url(#paint14_linear_900_17213)"/>
<path d="M135.814 679.07V52.7755L149.395 48.7159V679.07H135.814Z" fill="url(#paint15_linear_900_17213)"/>
<path d="M162.977 679.07V44.6562L176.558 40.5966V679.07H162.977Z" fill="url(#paint16_linear_900_17213)"/>
<path d="M190.14 679.07V36.5369L203.721 32.4773V679.07H190.14Z" fill="url(#paint17_linear_900_17213)"/>
<path d="M217.302 679.07V28.4176L230.884 24.3579V679.07H217.302Z" fill="url(#paint18_linear_900_17213)"/>
<path d="M244.465 679.07V20.2983L258.047 16.2386V679.07H244.465Z" fill="url(#paint19_linear_900_17213)"/>
<path d="M271.628 679.07V12.179L285.209 8.11932V679.07H271.628Z" fill="url(#paint20_linear_900_17213)"/>
<path d="M298.791 679.07V4.05965L312.372 0L312.372 679.07H298.791Z" fill="url(#paint21_linear_900_17213)"/>
</g>
<defs>
<linearGradient id="paint0_linear_900_17213" x1="292" y1="-80.2906" x2="292" y2="679.07" gradientUnits="userSpaceOnUse">
<stop stop-color="#AC835E"/>
<stop offset="1" stop-color="#AC835E" stop-opacity="0"/>
</linearGradient>
<linearGradient id="paint1_linear_900_17213" x1="292" y1="-80.2906" x2="292" y2="679.07" gradientUnits="userSpaceOnUse">
<stop stop-color="#AC835E"/>
<stop offset="1" stop-color="#AC835E" stop-opacity="0"/>
</linearGradient>
<linearGradient id="paint2_linear_900_17213" x1="292" y1="-80.2906" x2="292" y2="679.07" gradientUnits="userSpaceOnUse">
<stop stop-color="#AC835E"/>
<stop offset="1" stop-color="#AC835E" stop-opacity="0"/>
</linearGradient>
<linearGradient id="paint3_linear_900_17213" x1="292" y1="-80.2906" x2="292" y2="679.07" gradientUnits="userSpaceOnUse">
<stop stop-color="#AC835E"/>
<stop offset="1" stop-color="#AC835E" stop-opacity="0"/>
</linearGradient>
<linearGradient id="paint4_linear_900_17213" x1="292" y1="-80.2906" x2="292" y2="679.07" gradientUnits="userSpaceOnUse">
<stop stop-color="#AC835E"/>
<stop offset="1" stop-color="#AC835E" stop-opacity="0"/>
</linearGradient>
<linearGradient id="paint5_linear_900_17213" x1="292" y1="-80.2906" x2="292" y2="679.07" gradientUnits="userSpaceOnUse">
<stop stop-color="#AC835E"/>
<stop offset="1" stop-color="#AC835E" stop-opacity="0"/>
</linearGradient>
<linearGradient id="paint6_linear_900_17213" x1="292" y1="-80.2906" x2="292" y2="679.07" gradientUnits="userSpaceOnUse">
<stop stop-color="#AC835E"/>
<stop offset="1" stop-color="#AC835E" stop-opacity="0"/>
</linearGradient>
<linearGradient id="paint7_linear_900_17213" x1="292" y1="-80.2906" x2="292" y2="679.07" gradientUnits="userSpaceOnUse">
<stop stop-color="#AC835E"/>
<stop offset="1" stop-color="#AC835E" stop-opacity="0"/>
</linearGradient>
<linearGradient id="paint8_linear_900_17213" x1="292" y1="-80.2906" x2="292" y2="679.07" gradientUnits="userSpaceOnUse">
<stop stop-color="#AC835E"/>
<stop offset="1" stop-color="#AC835E" stop-opacity="0"/>
</linearGradient>
<linearGradient id="paint9_linear_900_17213" x1="292" y1="-80.2906" x2="292" y2="679.07" gradientUnits="userSpaceOnUse">
<stop stop-color="#AC835E"/>
<stop offset="1" stop-color="#AC835E" stop-opacity="0"/>
</linearGradient>
<linearGradient id="paint10_linear_900_17213" x1="292" y1="-80.2906" x2="292" y2="679.07" gradientUnits="userSpaceOnUse">
<stop stop-color="#6D3706"/>
<stop offset="1" stop-color="#AC835E" stop-opacity="0"/>
</linearGradient>
<linearGradient id="paint11_linear_900_17213" x1="292" y1="-80.2906" x2="292" y2="679.07" gradientUnits="userSpaceOnUse">
<stop stop-color="#6D3706"/>
<stop offset="1" stop-color="#AC835E" stop-opacity="0"/>
</linearGradient>
<linearGradient id="paint12_linear_900_17213" x1="292" y1="-80.2906" x2="292" y2="679.07" gradientUnits="userSpaceOnUse">
<stop stop-color="#6D3706"/>
<stop offset="1" stop-color="#AC835E" stop-opacity="0"/>
</linearGradient>
<linearGradient id="paint13_linear_900_17213" x1="292" y1="-80.2906" x2="292" y2="679.07" gradientUnits="userSpaceOnUse">
<stop stop-color="#6D3706"/>
<stop offset="1" stop-color="#AC835E" stop-opacity="0"/>
</linearGradient>
<linearGradient id="paint14_linear_900_17213" x1="292" y1="-80.2906" x2="292" y2="679.07" gradientUnits="userSpaceOnUse">
<stop stop-color="#6D3706"/>
<stop offset="1" stop-color="#AC835E" stop-opacity="0"/>
</linearGradient>
<linearGradient id="paint15_linear_900_17213" x1="292" y1="-80.2906" x2="292" y2="679.07" gradientUnits="userSpaceOnUse">
<stop stop-color="#6D3706"/>
<stop offset="1" stop-color="#AC835E" stop-opacity="0"/>
</linearGradient>
<linearGradient id="paint16_linear_900_17213" x1="292" y1="-80.2906" x2="292" y2="679.07" gradientUnits="userSpaceOnUse">
<stop stop-color="#6D3706"/>
<stop offset="1" stop-color="#AC835E" stop-opacity="0"/>
</linearGradient>
<linearGradient id="paint17_linear_900_17213" x1="292" y1="-80.2906" x2="292" y2="679.07" gradientUnits="userSpaceOnUse">
<stop stop-color="#6D3706"/>
<stop offset="1" stop-color="#AC835E" stop-opacity="0"/>
</linearGradient>
<linearGradient id="paint18_linear_900_17213" x1="292" y1="-80.2906" x2="292" y2="679.07" gradientUnits="userSpaceOnUse">
<stop stop-color="#6D3706"/>
<stop offset="1" stop-color="#AC835E" stop-opacity="0"/>
</linearGradient>
<linearGradient id="paint19_linear_900_17213" x1="292" y1="-80.2906" x2="292" y2="679.07" gradientUnits="userSpaceOnUse">
<stop stop-color="#6D3706"/>
<stop offset="1" stop-color="#AC835E" stop-opacity="0"/>
</linearGradient>
<linearGradient id="paint20_linear_900_17213" x1="292" y1="-80.2906" x2="292" y2="679.07" gradientUnits="userSpaceOnUse">
<stop stop-color="#6D3706"/>
<stop offset="1" stop-color="#AC835E" stop-opacity="0"/>
</linearGradient>
<linearGradient id="paint21_linear_900_17213" x1="292" y1="-80.2906" x2="292" y2="679.07" gradientUnits="userSpaceOnUse">
<stop stop-color="#6D3706"/>
<stop offset="1" stop-color="#AC835E" stop-opacity="0"/>
</linearGradient>
</defs>
</svg>
