<svg width="494" height="464" viewBox="0 0 494 464" fill="none" xmlns="http://www.w3.org/2000/svg">
<g opacity="0.16">
<path d="M11.4884 44.8308L0 47.1904V576H11.4884V44.8308Z" fill="url(#paint0_linear_1720_11923)"/>
<path d="M34.4652 40.1118L22.9768 42.4713V576H34.4652V40.1118Z" fill="url(#paint1_linear_1720_11923)"/>
<path d="M57.4419 35.3928L45.9535 37.7523V576H57.4419V35.3928Z" fill="url(#paint2_linear_1720_11923)"/>
<path d="M80.4186 30.6737L68.9303 33.0332V576H80.4186V30.6737Z" fill="url(#paint3_linear_1720_11923)"/>
<path d="M103.395 25.9547L91.907 28.3142V576H103.395V25.9547Z" fill="url(#paint4_linear_1720_11923)"/>
<path d="M126.372 21.2357L114.884 23.5952V576H126.372V21.2357Z" fill="url(#paint5_linear_1720_11923)"/>
<path d="M149.349 16.5166L137.86 18.8761V576H149.349V16.5166Z" fill="url(#paint6_linear_1720_11923)"/>
<path d="M172.326 11.7976L160.837 14.1571V576H172.326V11.7976Z" fill="url(#paint7_linear_1720_11923)"/>
<path d="M195.302 7.07856L183.814 9.43807V576H195.302V7.07856Z" fill="url(#paint8_linear_1720_11923)"/>
<path d="M218.279 2.35952L206.791 4.71904V576H218.279V2.35952Z" fill="url(#paint9_linear_1720_11923)"/>
<path d="M494 576V79.2L482.512 75.7565V576H494Z" fill="url(#paint10_linear_1720_11923)"/>
<path d="M471.023 576V72.313L459.535 68.8696V576H471.023Z" fill="url(#paint11_linear_1720_11923)"/>
<path d="M448.047 576V65.4261L436.558 61.9826V576H448.047Z" fill="url(#paint12_linear_1720_11923)"/>
<path d="M425.07 576V58.5391L413.581 55.0957V576H425.07Z" fill="url(#paint13_linear_1720_11923)"/>
<path d="M402.093 576V51.6522L390.605 48.2087V576H402.093Z" fill="url(#paint14_linear_1720_11923)"/>
<path d="M379.116 576V44.7652L367.628 41.3217V576H379.116Z" fill="url(#paint15_linear_1720_11923)"/>
<path d="M356.14 576V37.8783L344.651 34.4348V576H356.14Z" fill="url(#paint16_linear_1720_11923)"/>
<path d="M333.163 576V30.9913L321.674 27.5478V576H333.163Z" fill="url(#paint17_linear_1720_11923)"/>
<path d="M310.186 576V24.1043L298.698 20.6609V576H310.186Z" fill="url(#paint18_linear_1720_11923)"/>
<path d="M287.209 576V17.2174L275.721 13.7739V576H287.209Z" fill="url(#paint19_linear_1720_11923)"/>
<path d="M264.233 576V10.3304L252.744 6.88696V576H264.233Z" fill="url(#paint20_linear_1720_11923)"/>
<path d="M241.256 576V3.44348L229.767 0V576H241.256Z" fill="url(#paint21_linear_1720_11923)"/>
</g>
<defs>
<linearGradient id="paint0_linear_1720_11923" x1="247" y1="-68.1041" x2="247" y2="590.5" gradientUnits="userSpaceOnUse">
<stop stop-color="white"/>
<stop offset="0.492259" stop-color="white" stop-opacity="0.15"/>
<stop offset="1" stop-color="white" stop-opacity="0"/>
</linearGradient>
<linearGradient id="paint1_linear_1720_11923" x1="247" y1="-68.1041" x2="247" y2="590.5" gradientUnits="userSpaceOnUse">
<stop stop-color="white"/>
<stop offset="0.492259" stop-color="white" stop-opacity="0.15"/>
<stop offset="1" stop-color="white" stop-opacity="0"/>
</linearGradient>
<linearGradient id="paint2_linear_1720_11923" x1="247" y1="-68.1041" x2="247" y2="590.5" gradientUnits="userSpaceOnUse">
<stop stop-color="white"/>
<stop offset="0.492259" stop-color="white" stop-opacity="0.15"/>
<stop offset="1" stop-color="white" stop-opacity="0"/>
</linearGradient>
<linearGradient id="paint3_linear_1720_11923" x1="247" y1="-68.1041" x2="247" y2="590.5" gradientUnits="userSpaceOnUse">
<stop stop-color="white"/>
<stop offset="0.492259" stop-color="white" stop-opacity="0.15"/>
<stop offset="1" stop-color="white" stop-opacity="0"/>
</linearGradient>
<linearGradient id="paint4_linear_1720_11923" x1="247" y1="-68.1041" x2="247" y2="590.5" gradientUnits="userSpaceOnUse">
<stop stop-color="white"/>
<stop offset="0.492259" stop-color="white" stop-opacity="0.15"/>
<stop offset="1" stop-color="white" stop-opacity="0"/>
</linearGradient>
<linearGradient id="paint5_linear_1720_11923" x1="247" y1="-68.1041" x2="247" y2="590.5" gradientUnits="userSpaceOnUse">
<stop stop-color="white"/>
<stop offset="0.492259" stop-color="white" stop-opacity="0.15"/>
<stop offset="1" stop-color="white" stop-opacity="0"/>
</linearGradient>
<linearGradient id="paint6_linear_1720_11923" x1="247" y1="-68.1041" x2="247" y2="590.5" gradientUnits="userSpaceOnUse">
<stop stop-color="white"/>
<stop offset="0.492259" stop-color="white" stop-opacity="0.15"/>
<stop offset="1" stop-color="white" stop-opacity="0"/>
</linearGradient>
<linearGradient id="paint7_linear_1720_11923" x1="247" y1="-68.1041" x2="247" y2="590.5" gradientUnits="userSpaceOnUse">
<stop stop-color="white"/>
<stop offset="0.492259" stop-color="white" stop-opacity="0.15"/>
<stop offset="1" stop-color="white" stop-opacity="0"/>
</linearGradient>
<linearGradient id="paint8_linear_1720_11923" x1="247" y1="-68.1041" x2="247" y2="590.5" gradientUnits="userSpaceOnUse">
<stop stop-color="white"/>
<stop offset="0.492259" stop-color="white" stop-opacity="0.15"/>
<stop offset="1" stop-color="white" stop-opacity="0"/>
</linearGradient>
<linearGradient id="paint9_linear_1720_11923" x1="247" y1="-68.1041" x2="247" y2="590.5" gradientUnits="userSpaceOnUse">
<stop stop-color="white"/>
<stop offset="0.492259" stop-color="white" stop-opacity="0.15"/>
<stop offset="1" stop-color="white" stop-opacity="0"/>
</linearGradient>
<linearGradient id="paint10_linear_1720_11923" x1="247" y1="-68.1041" x2="247" y2="590.5" gradientUnits="userSpaceOnUse">
<stop stop-color="white"/>
<stop offset="0.492259" stop-color="white" stop-opacity="0.15"/>
<stop offset="1" stop-color="white" stop-opacity="0"/>
</linearGradient>
<linearGradient id="paint11_linear_1720_11923" x1="247" y1="-68.1041" x2="247" y2="590.5" gradientUnits="userSpaceOnUse">
<stop stop-color="white"/>
<stop offset="0.492259" stop-color="white" stop-opacity="0.15"/>
<stop offset="1" stop-color="white" stop-opacity="0"/>
</linearGradient>
<linearGradient id="paint12_linear_1720_11923" x1="247" y1="-68.1041" x2="247" y2="590.5" gradientUnits="userSpaceOnUse">
<stop stop-color="white"/>
<stop offset="0.492259" stop-color="white" stop-opacity="0.15"/>
<stop offset="1" stop-color="white" stop-opacity="0"/>
</linearGradient>
<linearGradient id="paint13_linear_1720_11923" x1="247" y1="-68.1041" x2="247" y2="590.5" gradientUnits="userSpaceOnUse">
<stop stop-color="white"/>
<stop offset="0.492259" stop-color="white" stop-opacity="0.15"/>
<stop offset="1" stop-color="white" stop-opacity="0"/>
</linearGradient>
<linearGradient id="paint14_linear_1720_11923" x1="247" y1="-68.1041" x2="247" y2="590.5" gradientUnits="userSpaceOnUse">
<stop stop-color="white"/>
<stop offset="0.492259" stop-color="white" stop-opacity="0.15"/>
<stop offset="1" stop-color="white" stop-opacity="0"/>
</linearGradient>
<linearGradient id="paint15_linear_1720_11923" x1="247" y1="-68.1041" x2="247" y2="590.5" gradientUnits="userSpaceOnUse">
<stop stop-color="white"/>
<stop offset="0.492259" stop-color="white" stop-opacity="0.15"/>
<stop offset="1" stop-color="white" stop-opacity="0"/>
</linearGradient>
<linearGradient id="paint16_linear_1720_11923" x1="247" y1="-68.1041" x2="247" y2="590.5" gradientUnits="userSpaceOnUse">
<stop stop-color="white"/>
<stop offset="0.492259" stop-color="white" stop-opacity="0.15"/>
<stop offset="1" stop-color="white" stop-opacity="0"/>
</linearGradient>
<linearGradient id="paint17_linear_1720_11923" x1="247" y1="-68.1041" x2="247" y2="590.5" gradientUnits="userSpaceOnUse">
<stop stop-color="white"/>
<stop offset="0.492259" stop-color="white" stop-opacity="0.15"/>
<stop offset="1" stop-color="white" stop-opacity="0"/>
</linearGradient>
<linearGradient id="paint18_linear_1720_11923" x1="247" y1="-68.1041" x2="247" y2="590.5" gradientUnits="userSpaceOnUse">
<stop stop-color="white"/>
<stop offset="0.492259" stop-color="white" stop-opacity="0.15"/>
<stop offset="1" stop-color="white" stop-opacity="0"/>
</linearGradient>
<linearGradient id="paint19_linear_1720_11923" x1="247" y1="-68.1041" x2="247" y2="590.5" gradientUnits="userSpaceOnUse">
<stop stop-color="white"/>
<stop offset="0.492259" stop-color="white" stop-opacity="0.15"/>
<stop offset="1" stop-color="white" stop-opacity="0"/>
</linearGradient>
<linearGradient id="paint20_linear_1720_11923" x1="247" y1="-68.1041" x2="247" y2="590.5" gradientUnits="userSpaceOnUse">
<stop stop-color="white"/>
<stop offset="0.492259" stop-color="white" stop-opacity="0.15"/>
<stop offset="1" stop-color="white" stop-opacity="0"/>
</linearGradient>
<linearGradient id="paint21_linear_1720_11923" x1="247" y1="-68.1041" x2="247" y2="590.5" gradientUnits="userSpaceOnUse">
<stop stop-color="white"/>
<stop offset="0.492259" stop-color="white" stop-opacity="0.15"/>
<stop offset="1" stop-color="white" stop-opacity="0"/>
</linearGradient>
</defs>
</svg>
