<svg width="176" height="326" viewBox="0 0 176 326" fill="none" xmlns="http://www.w3.org/2000/svg">
<g opacity="0.08">
<path d="M169.481 14.6896L176 16.0251V326H169.481V14.6896Z" fill="url(#paint0_linear_1887_32885)"/>
<path d="M156.444 12.0188L162.963 13.3542V326H156.444V12.0188Z" fill="url(#paint1_linear_1887_32885)"/>
<path d="M143.407 9.34795L149.926 10.6834V326H143.407V9.34795Z" fill="url(#paint2_linear_1887_32885)"/>
<path d="M130.37 6.67711L136.889 8.01253V326H130.37V6.67711Z" fill="url(#paint3_linear_1887_32885)"/>
<path d="M117.333 4.00627L123.852 5.34169V326H117.333V4.00627Z" fill="url(#paint4_linear_1887_32885)"/>
<path d="M104.296 1.33542L110.815 2.67085V326H104.296V1.33542Z" fill="url(#paint5_linear_1887_32885)"/>
<path d="M0 326V29.2337L6.51852 27.2848V326H0Z" fill="url(#paint6_linear_1887_32885)"/>
<path d="M13.037 326V25.3359L19.5555 23.387V326H13.037Z" fill="url(#paint7_linear_1887_32885)"/>
<path d="M26.0741 326V21.438L32.5926 19.4891V326H26.0741Z" fill="url(#paint8_linear_1887_32885)"/>
<path d="M39.1111 326V17.5402L45.6296 15.5913V326H39.1111Z" fill="url(#paint9_linear_1887_32885)"/>
<path d="M52.1482 326V13.6424L58.6667 11.6935V326H52.1482Z" fill="url(#paint10_linear_1887_32885)"/>
<path d="M65.1852 326V9.74456L71.7037 7.79565V326H65.1852Z" fill="url(#paint11_linear_1887_32885)"/>
<path d="M78.2222 326V5.84674L84.7407 3.89783V326H78.2222Z" fill="url(#paint12_linear_1887_32885)"/>
<path d="M91.2593 326V1.94891L97.7778 0L97.7778 326H91.2593Z" fill="url(#paint13_linear_1887_32885)"/>
</g>
<defs>
<linearGradient id="paint0_linear_1887_32885" x1="88" y1="-38.545" x2="88" y2="326" gradientUnits="userSpaceOnUse">
<stop stop-color="#AC835E"/>
<stop offset="1" stop-color="#AC835E" stop-opacity="0"/>
</linearGradient>
<linearGradient id="paint1_linear_1887_32885" x1="88" y1="-38.545" x2="88" y2="326" gradientUnits="userSpaceOnUse">
<stop stop-color="#AC835E"/>
<stop offset="1" stop-color="#AC835E" stop-opacity="0"/>
</linearGradient>
<linearGradient id="paint2_linear_1887_32885" x1="88" y1="-38.545" x2="88" y2="326" gradientUnits="userSpaceOnUse">
<stop stop-color="#AC835E"/>
<stop offset="1" stop-color="#AC835E" stop-opacity="0"/>
</linearGradient>
<linearGradient id="paint3_linear_1887_32885" x1="88" y1="-38.545" x2="88" y2="326" gradientUnits="userSpaceOnUse">
<stop stop-color="#AC835E"/>
<stop offset="1" stop-color="#AC835E" stop-opacity="0"/>
</linearGradient>
<linearGradient id="paint4_linear_1887_32885" x1="88" y1="-38.545" x2="88" y2="326" gradientUnits="userSpaceOnUse">
<stop stop-color="#AC835E"/>
<stop offset="1" stop-color="#AC835E" stop-opacity="0"/>
</linearGradient>
<linearGradient id="paint5_linear_1887_32885" x1="88" y1="-38.545" x2="88" y2="326" gradientUnits="userSpaceOnUse">
<stop stop-color="#AC835E"/>
<stop offset="1" stop-color="#AC835E" stop-opacity="0"/>
</linearGradient>
<linearGradient id="paint6_linear_1887_32885" x1="88" y1="-38.545" x2="88" y2="326" gradientUnits="userSpaceOnUse">
<stop stop-color="#6D3706"/>
<stop offset="1" stop-color="#AC835E" stop-opacity="0"/>
</linearGradient>
<linearGradient id="paint7_linear_1887_32885" x1="88" y1="-38.545" x2="88" y2="326" gradientUnits="userSpaceOnUse">
<stop stop-color="#6D3706"/>
<stop offset="1" stop-color="#AC835E" stop-opacity="0"/>
</linearGradient>
<linearGradient id="paint8_linear_1887_32885" x1="88" y1="-38.545" x2="88" y2="326" gradientUnits="userSpaceOnUse">
<stop stop-color="#6D3706"/>
<stop offset="1" stop-color="#AC835E" stop-opacity="0"/>
</linearGradient>
<linearGradient id="paint9_linear_1887_32885" x1="88" y1="-38.545" x2="88" y2="326" gradientUnits="userSpaceOnUse">
<stop stop-color="#6D3706"/>
<stop offset="1" stop-color="#AC835E" stop-opacity="0"/>
</linearGradient>
<linearGradient id="paint10_linear_1887_32885" x1="88" y1="-38.545" x2="88" y2="326" gradientUnits="userSpaceOnUse">
<stop stop-color="#6D3706"/>
<stop offset="1" stop-color="#AC835E" stop-opacity="0"/>
</linearGradient>
<linearGradient id="paint11_linear_1887_32885" x1="88" y1="-38.545" x2="88" y2="326" gradientUnits="userSpaceOnUse">
<stop stop-color="#6D3706"/>
<stop offset="1" stop-color="#AC835E" stop-opacity="0"/>
</linearGradient>
<linearGradient id="paint12_linear_1887_32885" x1="88" y1="-38.545" x2="88" y2="326" gradientUnits="userSpaceOnUse">
<stop stop-color="#6D3706"/>
<stop offset="1" stop-color="#AC835E" stop-opacity="0"/>
</linearGradient>
<linearGradient id="paint13_linear_1887_32885" x1="88" y1="-38.545" x2="88" y2="326" gradientUnits="userSpaceOnUse">
<stop stop-color="#6D3706"/>
<stop offset="1" stop-color="#AC835E" stop-opacity="0"/>
</linearGradient>
</defs>
</svg>
