<svg width="258" height="346" viewBox="0 0 258 346" fill="none" xmlns="http://www.w3.org/2000/svg">
<g opacity="0.08">
<path d="M246.907 -165.804L258 -163.53V346H246.907V-165.804Z" fill="url(#paint0_linear_356_8981)"/>
<path d="M224.721 -170.351L235.814 -168.077V346H224.721V-170.351Z" fill="url(#paint1_linear_356_8981)"/>
<path d="M202.535 -174.898L213.628 -172.624V346H202.535V-174.898Z" fill="url(#paint2_linear_356_8981)"/>
<path d="M180.349 -179.445L191.442 -177.171V346H180.349V-179.445Z" fill="url(#paint3_linear_356_8981)"/>
<path d="M158.163 -183.992L169.256 -181.718V346H158.163V-183.992Z" fill="url(#paint4_linear_356_8981)"/>
<path d="M135.977 -188.539L147.07 -186.265V346H135.977V-188.539Z" fill="url(#paint5_linear_356_8981)"/>
<path d="M113.791 -193.086L124.884 -190.812V346H113.791V-193.086Z" fill="url(#paint6_linear_356_8981)"/>
<path d="M91.6046 -197.633L102.698 -195.359V346H91.6046V-197.633Z" fill="url(#paint7_linear_356_8981)"/>
<path d="M69.4186 -202.18L80.5116 -199.906V346H69.4186V-202.18Z" fill="url(#paint8_linear_356_8981)"/>
<path d="M47.2325 -206.727L58.3256 -204.453V346H47.2325V-206.727Z" fill="url(#paint9_linear_356_8981)"/>
<path d="M-219 346V-132.688L-207.907 -136.005V346H-219Z" fill="url(#paint10_linear_356_8981)"/>
<path d="M-196.814 346V-139.323L-185.721 -142.641V346H-196.814Z" fill="url(#paint11_linear_356_8981)"/>
<path d="M-174.628 346V-145.959L-163.535 -149.277V346H-174.628Z" fill="url(#paint12_linear_356_8981)"/>
<path d="M-152.442 346V-152.595L-141.349 -155.913V346H-152.442Z" fill="url(#paint13_linear_356_8981)"/>
<path d="M-130.256 346V-159.231L-119.163 -162.549V346H-130.256Z" fill="url(#paint14_linear_356_8981)"/>
<path d="M-108.07 346V-165.867L-96.9768 -169.185V346H-108.07Z" fill="url(#paint15_linear_356_8981)"/>
<path d="M-85.8837 346V-172.503L-74.7907 -175.821V346H-85.8837Z" fill="url(#paint16_linear_356_8981)"/>
<path d="M-63.6977 346V-179.139L-52.6047 -182.457V346H-63.6977Z" fill="url(#paint17_linear_356_8981)"/>
<path d="M-41.5116 346V-185.774L-30.4186 -189.092V346H-41.5116Z" fill="url(#paint18_linear_356_8981)"/>
<path d="M-19.3256 346V-192.41L-8.23254 -195.728V346H-19.3256Z" fill="url(#paint19_linear_356_8981)"/>
<path d="M2.86046 346V-199.046L13.9535 -202.364V346H2.86046Z" fill="url(#paint20_linear_356_8981)"/>
<path d="M25.0465 346V-205.682L36.1395 -209L36.1395 346H25.0465Z" fill="url(#paint21_linear_356_8981)"/>
</g>
<defs>
<linearGradient id="paint0_linear_356_8981" x1="19.5" y1="-274.621" x2="19.5" y2="346" gradientUnits="userSpaceOnUse">
<stop stop-color="white"/>
<stop offset="1" stop-color="#AC835E" stop-opacity="0"/>
</linearGradient>
<linearGradient id="paint1_linear_356_8981" x1="19.5" y1="-274.621" x2="19.5" y2="346" gradientUnits="userSpaceOnUse">
<stop stop-color="white"/>
<stop offset="1" stop-color="#AC835E" stop-opacity="0"/>
</linearGradient>
<linearGradient id="paint2_linear_356_8981" x1="19.5" y1="-274.621" x2="19.5" y2="346" gradientUnits="userSpaceOnUse">
<stop stop-color="white"/>
<stop offset="1" stop-color="#AC835E" stop-opacity="0"/>
</linearGradient>
<linearGradient id="paint3_linear_356_8981" x1="19.5" y1="-274.621" x2="19.5" y2="346" gradientUnits="userSpaceOnUse">
<stop stop-color="white"/>
<stop offset="1" stop-color="#AC835E" stop-opacity="0"/>
</linearGradient>
<linearGradient id="paint4_linear_356_8981" x1="19.5" y1="-274.621" x2="19.5" y2="346" gradientUnits="userSpaceOnUse">
<stop stop-color="white"/>
<stop offset="1" stop-color="#AC835E" stop-opacity="0"/>
</linearGradient>
<linearGradient id="paint5_linear_356_8981" x1="19.5" y1="-274.621" x2="19.5" y2="346" gradientUnits="userSpaceOnUse">
<stop stop-color="white"/>
<stop offset="1" stop-color="#AC835E" stop-opacity="0"/>
</linearGradient>
<linearGradient id="paint6_linear_356_8981" x1="19.5" y1="-274.621" x2="19.5" y2="346" gradientUnits="userSpaceOnUse">
<stop stop-color="white"/>
<stop offset="1" stop-color="#AC835E" stop-opacity="0"/>
</linearGradient>
<linearGradient id="paint7_linear_356_8981" x1="19.5" y1="-274.621" x2="19.5" y2="346" gradientUnits="userSpaceOnUse">
<stop stop-color="white"/>
<stop offset="1" stop-color="#AC835E" stop-opacity="0"/>
</linearGradient>
<linearGradient id="paint8_linear_356_8981" x1="19.5" y1="-274.621" x2="19.5" y2="346" gradientUnits="userSpaceOnUse">
<stop stop-color="white"/>
<stop offset="1" stop-color="#AC835E" stop-opacity="0"/>
</linearGradient>
<linearGradient id="paint9_linear_356_8981" x1="19.5" y1="-274.621" x2="19.5" y2="346" gradientUnits="userSpaceOnUse">
<stop stop-color="white"/>
<stop offset="1" stop-color="#AC835E" stop-opacity="0"/>
</linearGradient>
<linearGradient id="paint10_linear_356_8981" x1="19.5" y1="-274.621" x2="19.5" y2="346" gradientUnits="userSpaceOnUse">
<stop stop-color="white" stop-opacity="0.53"/>
<stop offset="1" stop-color="white" stop-opacity="0"/>
</linearGradient>
<linearGradient id="paint11_linear_356_8981" x1="19.5" y1="-274.621" x2="19.5" y2="346" gradientUnits="userSpaceOnUse">
<stop stop-color="white" stop-opacity="0.53"/>
<stop offset="1" stop-color="white" stop-opacity="0"/>
</linearGradient>
<linearGradient id="paint12_linear_356_8981" x1="19.5" y1="-274.621" x2="19.5" y2="346" gradientUnits="userSpaceOnUse">
<stop stop-color="white" stop-opacity="0.53"/>
<stop offset="1" stop-color="white" stop-opacity="0"/>
</linearGradient>
<linearGradient id="paint13_linear_356_8981" x1="19.5" y1="-274.621" x2="19.5" y2="346" gradientUnits="userSpaceOnUse">
<stop stop-color="white" stop-opacity="0.53"/>
<stop offset="1" stop-color="white" stop-opacity="0"/>
</linearGradient>
<linearGradient id="paint14_linear_356_8981" x1="19.5" y1="-274.621" x2="19.5" y2="346" gradientUnits="userSpaceOnUse">
<stop stop-color="white" stop-opacity="0.53"/>
<stop offset="1" stop-color="white" stop-opacity="0"/>
</linearGradient>
<linearGradient id="paint15_linear_356_8981" x1="19.5" y1="-274.621" x2="19.5" y2="346" gradientUnits="userSpaceOnUse">
<stop stop-color="white" stop-opacity="0.53"/>
<stop offset="1" stop-color="white" stop-opacity="0"/>
</linearGradient>
<linearGradient id="paint16_linear_356_8981" x1="19.5" y1="-274.621" x2="19.5" y2="346" gradientUnits="userSpaceOnUse">
<stop stop-color="white" stop-opacity="0.53"/>
<stop offset="1" stop-color="white" stop-opacity="0"/>
</linearGradient>
<linearGradient id="paint17_linear_356_8981" x1="19.5" y1="-274.621" x2="19.5" y2="346" gradientUnits="userSpaceOnUse">
<stop stop-color="white" stop-opacity="0.53"/>
<stop offset="1" stop-color="white" stop-opacity="0"/>
</linearGradient>
<linearGradient id="paint18_linear_356_8981" x1="19.5" y1="-274.621" x2="19.5" y2="346" gradientUnits="userSpaceOnUse">
<stop stop-color="white" stop-opacity="0.53"/>
<stop offset="1" stop-color="white" stop-opacity="0"/>
</linearGradient>
<linearGradient id="paint19_linear_356_8981" x1="19.5" y1="-274.621" x2="19.5" y2="346" gradientUnits="userSpaceOnUse">
<stop stop-color="white" stop-opacity="0.53"/>
<stop offset="1" stop-color="white" stop-opacity="0"/>
</linearGradient>
<linearGradient id="paint20_linear_356_8981" x1="19.5" y1="-274.621" x2="19.5" y2="346" gradientUnits="userSpaceOnUse">
<stop stop-color="white" stop-opacity="0.53"/>
<stop offset="1" stop-color="white" stop-opacity="0"/>
</linearGradient>
<linearGradient id="paint21_linear_356_8981" x1="19.5" y1="-274.621" x2="19.5" y2="346" gradientUnits="userSpaceOnUse">
<stop stop-color="white" stop-opacity="0.53"/>
<stop offset="1" stop-color="white" stop-opacity="0"/>
</linearGradient>
</defs>
</svg>
