<svg width="477" height="555" viewBox="0 0 477 555" fill="none" xmlns="http://www.w3.org/2000/svg">
<path d="M465.907 43.1964L477 45.4699V555H465.907V43.1964Z" fill="url(#paint0_linear_1710_20276)"/>
<path d="M443.721 38.6494L454.814 40.9229V555H443.721V38.6494Z" fill="url(#paint1_linear_1710_20276)"/>
<path d="M421.535 34.1024L432.628 36.3759V555H421.535V34.1024Z" fill="url(#paint2_linear_1710_20276)"/>
<path d="M399.349 29.5554L410.442 31.8289V555H399.349V29.5554Z" fill="url(#paint3_linear_1710_20276)"/>
<path d="M377.163 25.0084L388.256 27.2819V555H377.163V25.0084Z" fill="url(#paint4_linear_1710_20276)"/>
<path d="M354.977 20.4614L366.07 22.7349V555H354.977V20.4614Z" fill="url(#paint5_linear_1710_20276)"/>
<path d="M332.791 15.9145L343.884 18.188V555H332.791V15.9145Z" fill="url(#paint6_linear_1710_20276)"/>
<path d="M310.605 11.3675L321.698 13.641V555H310.605V11.3675Z" fill="url(#paint7_linear_1710_20276)"/>
<path d="M288.419 6.82048L299.512 9.09398V555H288.419V6.82048Z" fill="url(#paint8_linear_1710_20276)"/>
<path d="M266.233 2.2735L277.326 4.54699V555H266.233V2.2735Z" fill="url(#paint9_linear_1710_20276)"/>
<path d="M0 555V76.3125L11.093 72.9946V555H0Z" fill="url(#paint10_linear_1710_20276)"/>
<path d="M22.186 555V69.6766L33.2791 66.3587V555H22.186Z" fill="url(#paint11_linear_1710_20276)"/>
<path d="M44.3721 555V63.0408L55.4651 59.7228V555H44.3721Z" fill="url(#paint12_linear_1710_20276)"/>
<path d="M66.5581 555V56.4049L77.6511 53.087V555H66.5581Z" fill="url(#paint13_linear_1710_20276)"/>
<path d="M88.7442 555V49.769L99.8372 46.4511V555H88.7442Z" fill="url(#paint14_linear_1710_20276)"/>
<path d="M110.93 555V43.1332L122.023 39.8152V555H110.93Z" fill="url(#paint15_linear_1710_20276)"/>
<path d="M133.116 555V36.4973L144.209 33.1793V555H133.116Z" fill="url(#paint16_linear_1710_20276)"/>
<path d="M155.302 555V29.8614L166.395 26.5435V555H155.302Z" fill="url(#paint17_linear_1710_20276)"/>
<path d="M177.488 555V23.2255L188.581 19.9076V555H177.488Z" fill="url(#paint18_linear_1710_20276)"/>
<path d="M199.674 555V16.5897L210.767 13.2717V555H199.674Z" fill="url(#paint19_linear_1710_20276)"/>
<path d="M221.86 555V9.95381L232.953 6.63587V555H221.86Z" fill="url(#paint20_linear_1710_20276)"/>
<path d="M244.047 555V3.31793L255.14 0L255.14 555H244.047Z" fill="url(#paint21_linear_1710_20276)"/>
<defs>
<linearGradient id="paint0_linear_1710_20276" x1="238.5" y1="-65.6211" x2="238.5" y2="555" gradientUnits="userSpaceOnUse">
<stop stop-color="white"/>
<stop offset="1" stop-color="#AC835E" stop-opacity="0"/>
</linearGradient>
<linearGradient id="paint1_linear_1710_20276" x1="238.5" y1="-65.6211" x2="238.5" y2="555" gradientUnits="userSpaceOnUse">
<stop stop-color="white"/>
<stop offset="1" stop-color="#AC835E" stop-opacity="0"/>
</linearGradient>
<linearGradient id="paint2_linear_1710_20276" x1="238.5" y1="-65.6211" x2="238.5" y2="555" gradientUnits="userSpaceOnUse">
<stop stop-color="white"/>
<stop offset="1" stop-color="#AC835E" stop-opacity="0"/>
</linearGradient>
<linearGradient id="paint3_linear_1710_20276" x1="238.5" y1="-65.6211" x2="238.5" y2="555" gradientUnits="userSpaceOnUse">
<stop stop-color="white"/>
<stop offset="1" stop-color="#AC835E" stop-opacity="0"/>
</linearGradient>
<linearGradient id="paint4_linear_1710_20276" x1="238.5" y1="-65.6211" x2="238.5" y2="555" gradientUnits="userSpaceOnUse">
<stop stop-color="white"/>
<stop offset="1" stop-color="#AC835E" stop-opacity="0"/>
</linearGradient>
<linearGradient id="paint5_linear_1710_20276" x1="238.5" y1="-65.6211" x2="238.5" y2="555" gradientUnits="userSpaceOnUse">
<stop stop-color="white"/>
<stop offset="1" stop-color="#AC835E" stop-opacity="0"/>
</linearGradient>
<linearGradient id="paint6_linear_1710_20276" x1="238.5" y1="-65.6211" x2="238.5" y2="555" gradientUnits="userSpaceOnUse">
<stop stop-color="white"/>
<stop offset="1" stop-color="#AC835E" stop-opacity="0"/>
</linearGradient>
<linearGradient id="paint7_linear_1710_20276" x1="238.5" y1="-65.6211" x2="238.5" y2="555" gradientUnits="userSpaceOnUse">
<stop stop-color="white"/>
<stop offset="1" stop-color="#AC835E" stop-opacity="0"/>
</linearGradient>
<linearGradient id="paint8_linear_1710_20276" x1="238.5" y1="-65.6211" x2="238.5" y2="555" gradientUnits="userSpaceOnUse">
<stop stop-color="white"/>
<stop offset="1" stop-color="#AC835E" stop-opacity="0"/>
</linearGradient>
<linearGradient id="paint9_linear_1710_20276" x1="238.5" y1="-65.6211" x2="238.5" y2="555" gradientUnits="userSpaceOnUse">
<stop stop-color="white"/>
<stop offset="1" stop-color="#AC835E" stop-opacity="0"/>
</linearGradient>
<linearGradient id="paint10_linear_1710_20276" x1="238.5" y1="-65.6211" x2="238.5" y2="555" gradientUnits="userSpaceOnUse">
<stop stop-color="#DADADA" stop-opacity="0.53"/>
<stop offset="1" stop-color="white" stop-opacity="0"/>
</linearGradient>
<linearGradient id="paint11_linear_1710_20276" x1="238.5" y1="-65.6211" x2="238.5" y2="555" gradientUnits="userSpaceOnUse">
<stop stop-color="#DADADA" stop-opacity="0.53"/>
<stop offset="1" stop-color="white" stop-opacity="0"/>
</linearGradient>
<linearGradient id="paint12_linear_1710_20276" x1="238.5" y1="-65.6211" x2="238.5" y2="555" gradientUnits="userSpaceOnUse">
<stop stop-color="#DADADA" stop-opacity="0.53"/>
<stop offset="1" stop-color="white" stop-opacity="0"/>
</linearGradient>
<linearGradient id="paint13_linear_1710_20276" x1="238.5" y1="-65.6211" x2="238.5" y2="555" gradientUnits="userSpaceOnUse">
<stop stop-color="#DADADA" stop-opacity="0.53"/>
<stop offset="1" stop-color="white" stop-opacity="0"/>
</linearGradient>
<linearGradient id="paint14_linear_1710_20276" x1="238.5" y1="-65.6211" x2="238.5" y2="555" gradientUnits="userSpaceOnUse">
<stop stop-color="#DADADA" stop-opacity="0.53"/>
<stop offset="1" stop-color="white" stop-opacity="0"/>
</linearGradient>
<linearGradient id="paint15_linear_1710_20276" x1="238.5" y1="-65.6211" x2="238.5" y2="555" gradientUnits="userSpaceOnUse">
<stop stop-color="#DADADA" stop-opacity="0.53"/>
<stop offset="1" stop-color="white" stop-opacity="0"/>
</linearGradient>
<linearGradient id="paint16_linear_1710_20276" x1="238.5" y1="-65.6211" x2="238.5" y2="555" gradientUnits="userSpaceOnUse">
<stop stop-color="#DADADA" stop-opacity="0.53"/>
<stop offset="1" stop-color="white" stop-opacity="0"/>
</linearGradient>
<linearGradient id="paint17_linear_1710_20276" x1="238.5" y1="-65.6211" x2="238.5" y2="555" gradientUnits="userSpaceOnUse">
<stop stop-color="#DADADA" stop-opacity="0.53"/>
<stop offset="1" stop-color="white" stop-opacity="0"/>
</linearGradient>
<linearGradient id="paint18_linear_1710_20276" x1="238.5" y1="-65.6211" x2="238.5" y2="555" gradientUnits="userSpaceOnUse">
<stop stop-color="#DADADA" stop-opacity="0.53"/>
<stop offset="1" stop-color="white" stop-opacity="0"/>
</linearGradient>
<linearGradient id="paint19_linear_1710_20276" x1="238.5" y1="-65.6211" x2="238.5" y2="555" gradientUnits="userSpaceOnUse">
<stop stop-color="#DADADA" stop-opacity="0.53"/>
<stop offset="1" stop-color="white" stop-opacity="0"/>
</linearGradient>
<linearGradient id="paint20_linear_1710_20276" x1="238.5" y1="-65.6211" x2="238.5" y2="555" gradientUnits="userSpaceOnUse">
<stop stop-color="#DADADA" stop-opacity="0.53"/>
<stop offset="1" stop-color="white" stop-opacity="0"/>
</linearGradient>
<linearGradient id="paint21_linear_1710_20276" x1="238.5" y1="-65.6211" x2="238.5" y2="555" gradientUnits="userSpaceOnUse">
<stop stop-color="#DADADA" stop-opacity="0.53"/>
<stop offset="1" stop-color="white" stop-opacity="0"/>
</linearGradient>
</defs>
</svg>
