<svg width="1920" height="200" viewBox="0 0 1920 200" fill="none" xmlns="http://www.w3.org/2000/svg">
<g opacity="0.24">
<mask id="mask0_873_18514" style="mask-type:alpha" maskUnits="userSpaceOnUse" x="-376" y="-289" width="1336" height="899">
<path d="M-376 -288.419H960V583.183C960 597.816 948.132 609.683 933.492 609.683H-376V-288.419Z" fill="white"/>
</mask>
<g mask="url(#mask0_873_18514)">
<g opacity="0.5">
<path d="M958.547 17.8882L960 16.436L834.013 -109.515V-239.094H831.956V-108.547L958.547 17.8882Z" fill="#958048"/>
<path d="M768.538 18.6142L895.859 -108.546V-239.094H893.802V-109.514L768.538 15.7098L643.4 -109.514V-239.094H641.343V-108.546L768.538 18.6142Z" fill="#958048"/>
<path d="M577.92 18.6142L705.118 -108.546V-239.094H703.062V-109.514L577.92 15.7098L452.66 -109.514V-239.094H450.603V-108.546L577.92 18.6142Z" fill="#958048"/>
<path d="M387.185 18.6116L514.503 -108.547V-239.094H512.446V-109.515L387.185 15.7099L262.044 -109.515V-239.094H259.987V-108.547L387.185 18.6116Z" fill="#958048"/>
<path d="M613.627 894.818H615.684V701.477L705.848 611.34L615.684 521.203V134.52L705.848 44.3856L615.684 -45.6317V-239.093H613.627V-44.7845L702.943 44.3856L613.627 133.675V522.051L702.943 611.34L613.627 700.51V894.818Z" fill="#958048"/>
<path d="M730.778 894.818H732.835V700.51L643.52 611.34L732.835 522.051V133.675L643.52 44.3856L732.835 -44.7845V-239.093H730.778V-45.6317L640.614 44.3856L730.778 134.52V521.203L640.614 611.34L730.778 701.477V894.818Z" fill="#958048"/>
<path d="M958.547 584.843L960 583.39L834.013 457.441V198.282L960 72.4545L958.547 70.8804L831.956 197.436V458.289L958.547 584.843Z" fill="#958048"/>
<path d="M804.361 894.818H806.418V701.477L896.582 611.34L806.418 521.203V134.52L896.582 44.3856L806.418 -45.6317V-239.093H804.361V-44.7845L893.558 44.3856L804.361 133.675V522.051L893.558 611.34L804.361 700.51V894.818Z" fill="#958048"/>
<path d="M921.395 894.818H923.452V700.51L834.255 611.34L923.452 522.051V133.675L834.255 44.3856L923.452 -44.7845V-239.093H921.395V-45.6317L831.23 44.3856L921.395 134.52V521.203L831.23 611.34L921.395 701.477V894.818Z" fill="#958048"/>
<path d="M768.539 585.569L895.857 458.289V197.436L768.539 70.1542L641.219 197.436V458.289L768.539 585.569ZM893.8 457.441L768.661 582.545L643.52 457.441V198.282L768.661 73.1805L893.8 198.282V457.441Z" fill="#958048"/>
<path d="M768.298 -239.093H768.78V894.696H768.298V-239.093Z" fill="#958048"/>
<path d="M959.033 -239.093H959.516V894.696H959.033V-239.093Z" fill="#958048"/>
<path d="M577.682 -239.093H578.167V894.696H577.682V-239.093Z" fill="#958048"/>
<path d="M232.275 894.818H234.454V701.477L324.497 611.34L234.454 521.203V134.52L324.497 44.3856L234.454 -45.6317V-239.093H232.275V-44.7845L321.591 44.3856L232.275 133.675V522.051L321.591 611.34L232.275 700.51V894.818Z" fill="#958048"/>
<path d="M349.427 894.818H351.484V700.51L262.168 611.34L351.484 522.051V133.675L262.168 44.3856L351.484 -44.7845V-239.093H349.427V-45.6317L259.263 44.3856L349.427 134.52V521.203L259.263 611.34L349.427 701.477V894.818Z" fill="#958048"/>
<path d="M577.923 585.569L705.243 458.289V197.436L577.923 70.1542L450.605 197.436V458.289L577.923 585.569ZM703.064 457.441L577.923 582.545L452.784 457.441V198.282L577.923 73.1805L703.064 198.282V457.441Z" fill="#958048"/>
<path d="M423.011 894.818H425.068V701.477L515.232 611.34L425.068 521.203V134.52L515.232 44.3856L425.068 -45.6317V-239.093H423.011V-44.7845L512.205 44.3856L423.011 133.675V522.051L512.205 611.34L423.011 700.51V894.818Z" fill="#958048"/>
<path d="M540.043 894.818H542.1V700.51L452.904 611.34L542.1 522.051V133.675L452.904 44.3856L542.1 -44.7845V-239.093H540.043V-45.6317L449.879 44.3856L540.043 134.52V521.203L449.879 611.34L540.043 701.477V894.818Z" fill="#958048"/>
<path d="M387.187 585.569L514.505 458.289V197.436L387.187 70.1542L259.867 197.436V458.289L387.187 585.569ZM512.448 457.441L387.307 582.545L262.168 457.441V198.282L387.307 73.1805L512.448 198.282V457.441Z" fill="#958048"/>
<path d="M386.944 -239.093H387.429V894.696H386.944V-239.093Z" fill="#958048"/>
<path d="M196.331 -239.093H196.813V894.696H196.331V-239.093Z" fill="#958048"/>
<path d="M196.572 18.6142L323.767 -108.546V-239.094H321.71V-109.514L196.572 15.7098L71.3085 -109.514V-239.094H69.2515V-108.546L196.572 18.6142Z" fill="#958048"/>
<path d="M5.83372 18.6142L133.154 -108.546V-239.094H131.094V-109.514L5.83372 15.7098L-119.306 -109.514V-239.094H-121.363V-108.546L5.83372 18.6142Z" fill="#958048"/>
<path d="M196.572 585.569L323.892 458.289V197.436L196.572 70.1542L69.2539 197.436V458.289L196.572 585.569ZM321.713 457.441L196.572 582.545L71.4329 457.441V198.282L196.572 73.1805L321.713 198.282V457.441Z" fill="#958048"/>
<path d="M41.6621 894.818H43.7191V701.477L133.883 611.34L43.7191 521.203V134.52L133.883 44.3856L43.7191 -45.6317V-239.093H41.6621V-44.7845L130.856 44.3856L41.6621 133.675V522.051L130.856 611.34L41.6621 700.51V894.818Z" fill="#958048"/>
<path d="M158.692 894.818H160.749V700.51L71.5524 611.34L160.749 522.051V133.675L71.5524 44.3856L160.749 -44.7845V-239.093H158.692V-45.6317L68.5278 44.3856L158.692 134.52V521.203L68.5278 611.34L158.692 701.477V894.818Z" fill="#958048"/>
<path d="M5.83659 585.569L133.154 458.289V197.436L5.83659 70.1542L-121.483 197.436V458.289L5.83659 585.569ZM131.097 457.441L5.95587 582.545L-119.183 457.441V198.282L5.95587 73.1805L131.097 198.282V457.441Z" fill="#958048"/>
<path d="M5.59521 -239.094H6.07764V894.696H5.59521V-239.094Z" fill="#958048"/>
</g>
</g>
</g>
<g opacity="0.24">
<mask id="mask1_873_18514" style="mask-type:alpha" maskUnits="userSpaceOnUse" x="960" y="-289" width="1336" height="899">
<path d="M960 -288.419H2296V583.183C2296 597.816 2284.13 609.683 2269.49 609.683H960V-288.419Z" fill="white"/>
</mask>
<g mask="url(#mask1_873_18514)">
<g opacity="0.5">
<path d="M1913.92 18.6142L2041.12 -108.546V-239.094H2039.06V-109.514L1913.92 15.7098L1788.66 -109.514V-239.094H1786.6V-108.546L1913.92 18.6142Z" fill="#958048"/>
<path d="M1723.18 18.6116L1850.5 -108.547V-239.094H1848.45V-109.515L1723.18 15.7099L1598.04 -109.515V-239.094H1595.99V-108.547L1723.18 18.6116Z" fill="#958048"/>
<path d="M1913.68 -239.093H1914.17V894.696H1913.68V-239.093Z" fill="#958048"/>
<path d="M1568.27 894.818H1570.45V701.477L1660.5 611.34L1570.45 521.203V134.52L1660.5 44.3856L1570.45 -45.6317V-239.093H1568.27V-44.7845L1657.59 44.3856L1568.27 133.675V522.051L1657.59 611.34L1568.27 700.51V894.818Z" fill="#958048"/>
<path d="M1685.43 894.818H1687.48V700.51L1598.17 611.34L1687.48 522.051V133.675L1598.17 44.3856L1687.48 -44.7845V-239.093H1685.43V-45.6317L1595.26 44.3856L1685.43 134.52V521.203L1595.26 611.34L1685.43 701.477V894.818Z" fill="#958048"/>
<path d="M1913.92 585.569L2041.24 458.289V197.436L1913.92 70.1542L1786.6 197.436V458.289L1913.92 585.569ZM2039.06 457.441L1913.92 582.545L1788.78 457.441V198.282L1913.92 73.1805L2039.06 198.282V457.441Z" fill="#958048"/>
<path d="M1759.01 894.818H1761.07V701.477L1851.23 611.34L1761.07 521.203V134.52L1851.23 44.3856L1761.07 -45.6317V-239.093H1759.01V-44.7845L1848.2 44.3856L1759.01 133.675V522.051L1848.2 611.34L1759.01 700.51V894.818Z" fill="#958048"/>
<path d="M1876.04 894.818H1878.1V700.51L1788.9 611.34L1878.1 522.051V133.675L1788.9 44.3856L1878.1 -44.7845V-239.093H1876.04V-45.6317L1785.88 44.3856L1876.04 134.52V521.203L1785.88 611.34L1876.04 701.477V894.818Z" fill="#958048"/>
<path d="M1723.19 585.569L1850.51 458.289V197.436L1723.19 70.1542L1595.87 197.436V458.289L1723.19 585.569ZM1848.45 457.441L1723.31 582.545L1598.17 457.441V198.282L1723.31 73.1805L1848.45 198.282V457.441Z" fill="#958048"/>
<path d="M1722.94 -239.093H1723.43V894.696H1722.94V-239.093Z" fill="#958048"/>
<path d="M1532.33 -239.093H1532.81V894.696H1532.33V-239.093Z" fill="#958048"/>
<path d="M1532.57 18.6142L1659.77 -108.546V-239.094H1657.71V-109.514L1532.57 15.7098L1407.31 -109.514V-239.094H1405.25V-108.546L1532.57 18.6142Z" fill="#958048"/>
<path d="M1341.83 18.6142L1469.15 -108.546V-239.094H1467.09V-109.514L1341.83 15.7098L1216.69 -109.514V-239.094H1214.64V-108.546L1341.83 18.6142Z" fill="#958048"/>
<path d="M1151.22 18.6144L1278.42 -108.545V-239.093H1276.36V-109.513L1151.22 15.71L1025.96 -109.513V-239.093H1023.9V-108.545L1151.22 18.6144Z" fill="#958048"/>
<path d="M960.485 18.6143L1087.8 -108.546V-239.093H1085.75V-109.514L960.485 15.7099L835.344 -109.514V-239.093H833.287V-108.546L960.485 18.6143Z" fill="#958048"/>
<path d="M1186.92 894.818H1189.1V701.477L1279.14 611.34L1189.1 521.203V134.523L1279.14 44.3856L1189.1 -45.6312V-239.093H1186.92V-44.7843L1276.24 44.3856L1186.92 133.675V522.051L1276.24 611.34L1186.92 700.51V894.818Z" fill="#958048"/>
<path d="M1304.08 894.818H1306.14V700.51L1216.82 611.34L1306.14 522.051V133.675L1216.82 44.3856L1306.14 -44.7843V-239.093H1304.08V-45.6312L1213.91 44.3856L1304.08 134.523V521.203L1213.91 611.34L1304.08 701.477V894.818Z" fill="#958048"/>
<path d="M1532.57 585.569L1659.89 458.289V197.436L1532.57 70.1542L1405.25 197.436V458.289L1532.57 585.569ZM1657.71 457.441L1532.57 582.545L1407.43 457.441V198.282L1532.57 73.1805L1657.71 198.282V457.441Z" fill="#958048"/>
<path d="M1377.66 894.818H1379.72V701.477L1469.88 611.34L1379.72 521.203V134.52L1469.88 44.3856L1379.72 -45.6317V-239.093H1377.66V-44.7845L1466.86 44.3856L1377.66 133.675V522.051L1466.86 611.34L1377.66 700.51V894.818Z" fill="#958048"/>
<path d="M1494.69 894.818H1496.75V700.51L1407.55 611.34L1496.75 522.051V133.675L1407.55 44.3856L1496.75 -44.7845V-239.093H1494.69V-45.6317L1404.53 44.3856L1494.69 134.52V521.203L1404.53 611.34L1494.69 701.477V894.818Z" fill="#958048"/>
<path d="M1341.84 585.569L1469.15 458.289V197.436L1341.84 70.1542L1214.52 197.436V458.289L1341.84 585.569ZM1467.1 457.441L1341.96 582.545L1216.82 457.441V198.282L1341.96 73.1805L1467.1 198.282V457.441Z" fill="#958048"/>
<path d="M1341.59 -239.094H1342.08V894.696H1341.59V-239.094Z" fill="#958048"/>
<path d="M1150.98 -239.094H1151.46V894.696H1150.98V-239.094Z" fill="#958048"/>
<path d="M1151.22 585.569L1278.54 458.286V197.434L1151.22 70.1542L1023.9 197.434V458.286L1151.22 585.569ZM1276.36 457.441L1151.22 582.542L1026.08 457.441V198.282L1151.22 73.1805L1276.36 198.282V457.441Z" fill="#958048"/>
<path d="M996.31 894.816H998.367V701.474L1088.53 611.34L998.367 521.203V134.52L1088.53 44.3829L998.367 -45.6326V-239.094H996.31V-44.7856L1085.51 44.3829L996.31 133.675V522.048L1085.51 611.34L996.31 700.507V894.816Z" fill="#958048"/>
<path d="M1113.34 894.816H1115.4V700.507L1026.2 611.34L1115.4 522.048V133.675L1026.2 44.3829L1115.4 -44.7856V-239.094H1113.34V-45.6326L1023.18 44.3829L1113.34 134.52V521.203L1023.18 611.34L1113.34 701.474V894.816Z" fill="#958048"/>
<path d="M960.485 585.569L1087.8 458.286V197.434L960.485 70.1542L833.166 197.434V458.286L960.485 585.569ZM1085.75 457.441L960.606 582.542L835.466 457.441V198.282L960.606 73.1778L1085.75 198.282V457.441Z" fill="#958048"/>
<path d="M960.365 -239.094H960.849V894.696H960.365V-239.094Z" fill="#958048"/>
</g>
</g>
</g>
</svg>
